<?xml version="1.0" standalone="no"?>
<!DOCTYPE svg PUBLIC "-//W3C//DTD SVG 20010904//EN"
 "http://www.w3.org/TR/2001/REC-SVG-20010904/DTD/svg10.dtd">
<svg version="1.0" xmlns="http://www.w3.org/2000/svg"
 width="256.000000pt" height="256.000000pt" viewBox="0 0 256.000000 256.000000"
 preserveAspectRatio="xMidYMid meet">
<metadata>
Created by potrace 1.14, written by Peter Selinger 2001-2017
</metadata>
<g transform="translate(0.000000,256.000000) scale(0.100000,-0.100000)"
fill="#000000" stroke="none">
<path d="M1389 2544 c-14 -9 -65 -75 -114 -146 -75 -110 -91 -128 -111 -125
-13 2 -30 11 -37 21 -7 10 -26 19 -43 21 -16 1 -51 5 -79 9 -27 3 -81 8 -120
11 -38 3 -86 8 -105 10 -115 14 -173 19 -237 19 -67 1 -73 -1 -102 -31 -17
-18 -31 -43 -32 -55 0 -13 -2 -32 -4 -43 -2 -11 -6 -47 -9 -80 -10 -114 -18
-190 -21 -210 -4 -25 -18 -170 -20 -205 -1 -24 -5 -25 -71 -30 -98 -8 -134
-38 -148 -124 -3 -16 -21 -43 -40 -60 -18 -18 -39 -50 -46 -71 -8 -29 -10
-220 -8 -695 l3 -655 22 -31 c12 -17 35 -40 50 -50 27 -18 69 -19 1093 -21
l1065 -3 40 23 c22 12 50 40 62 62 21 38 23 51 23 233 l0 192 34 0 c21 0 42 9
60 25 l26 24 0 223 c-1 206 -2 225 -20 246 -12 15 -35 26 -60 29 l-40 6 0 176
c0 190 -8 240 -46 278 -17 17 -24 35 -24 61 0 69 -60 132 -125 132 -25 0 -24
3 36 90 68 99 80 146 51 194 -10 15 -138 110 -287 211 -148 101 -274 187 -280
192 -11 9 -59 41 -87 58 -9 5 -37 24 -62 42 -90 63 -141 76 -187 47z"/>
</g>
</svg>
